<svg xmlns="http://www.w3.org/2000/svg" xmlns:xlink="http://www.w3.org/1999/xlink" version="1.1" style="" xml:space="preserve" width="471.643" height="471.643"><rect id="backgroundrect" width="100%" height="100%" x="0" y="0" fill="none" stroke="none"/>
<g class="currentLayer" style=""><title>Layer 1</title><path style="" d="M439.648,105.453H114.064l38.128,230.16h258.896c15.584,0,28.896-11.232,31.536-26.576l28.544-166.16  C474.544,123.325,459.488,105.453,439.648,105.453z M241.6,296.909c-8.672,0.816-16.592-5.552-17.408-14.448L211.12,173.549  c-0.816-8.816,5.664-16.592,14.448-17.424c8.784-0.816,16.592,5.664,17.408,14.448l13.072,108.912  C256.864,288.301,250.384,296.077,241.6,296.909z M321.456,280.973c0,8.848-7.168,16-16,16s-16-7.152-16-16V172.061  c0-8.848,7.168-16,16-16s16,7.152,16,16V280.973z M386.72,282.461c-0.816,8.896-8.736,15.264-17.408,14.448  c-8.8-0.832-15.28-8.608-14.448-17.424l13.072-108.912c0.8-8.8,8.592-15.296,17.408-14.448c8.8,0.832,15.28,8.608,14.448,17.424  L386.72,282.461z" id="svg_2" class="" fill-opacity="1" fill="#767e8e"/><path style="" d="M438.112,389.51150304079056 H155.616 c-7.824,0 -14.496,-5.664 -15.776,-13.36 L83.104,37.04750304079056 H16 c-8.832,0 -16,-7.152 -16,-16 s7.168,-16 16,-16 h80.672 c7.824,0 14.496,5.664 15.776,13.36 l56.72,339.104 h268.944 c8.832,0 16,7.152 16,16 S446.944,389.51150304079056 438.112,389.51150304079056 z" id="svg_3" class="" fill-opacity="1" fill="#d8d8d8"/><circle style="" cx="222.8000030517578" cy="420.0450134277344" r="45.93600082397461" id="svg_4" class="" fill-opacity="1" fill="#313640"/><circle style="fill:#FFFFFF;" cx="222.8000030517578" cy="420.0450134277344" r="24.464000701904297" id="svg_5"/><circle style="" cx="380.78399658203125" cy="420.0450134277344" r="45.93600082397461" id="svg_6" class="" fill-opacity="1" fill="#313640"/><circle style="fill:#FFFFFF;" cx="380.78399658203125" cy="420.0450134277344" r="24.464000701904297" id="svg_7"/><g id="svg_14">
</g><g id="svg_15">
</g><g id="svg_16">
</g><g id="svg_17">
</g><g id="svg_18">
</g><g id="svg_19">
</g><g id="svg_20">
</g><g id="svg_21">
</g><g id="svg_22">
</g><g id="svg_23">
</g><g id="svg_24">
</g><g id="svg_25">
</g><g id="svg_26">
</g><g id="svg_27">
</g><g id="svg_28">
</g></g></svg>
